#N canvas 39 125 934 524 10;
#X declare -lib mrpeach;
#X obj 714 69 import mrpeach;
#X obj 643 89 packOSC;
#X obj 643 110 udpsend;
#X obj 34 51 openpanel;
#X obj 34 23 bng 15 250 50 0 empty empty empty 17 7 0 10 -262144 -1
-1;
#X obj 714 94 loadbang;
#X msg 714 115 connect 127.0.0.1 57120;
#X text 56 21 load a soundfile;
#X msg 34 108 /oo func value \$1 \$2;
#X floatatom 112 59 5 0 0 0 - - -;
#X obj 34 129 s toSC;
#X text 154 55 release time in seconds for fading out old synth;
#X obj 34 87 pack s 1;
#X obj 24 333 hsl 128 15 0 1 0 0 empty empty empty -2 -8 0 10 -262144
-1 -1 10900 1;
#X obj 643 68 r toSC;
#X obj 380 28 vsl 15 128 -127 20 0 0 empty empty empty 0 -9 0 10 -262144
-1 -1 10972 1;
#X text 406 45 main volume;
#X floatatom 380 167 5 0 0 0 - - -;
#X obj 416 73 loadbang;
#X msg 416 95 0;
#X text 421 168 db;
#X msg 380 188 /oo synth set vol \$1;
#X obj 380 210 s toSC;
#X msg 21 400 /oo synth set posMin \$1;
#X obj 21 498 s toSC;
#X obj 24 353 hsl 128 15 0 1 0 0 empty empty empty -2 -8 0 10 -262144
-1 -1 1800 1;
#X obj 24 373 hsl 128 15 0.001 144 1 0 empty empty empty -2 -8 0 10
-262144 -1 -1 11500 1;
#X msg 21 422 /oo synth set posMax \$1;
#X msg 27 468 /oo synth set posRate \$1;
#X floatatom 27 447 5 0 0 0 - - -;
#X text 15 310 position and rate of change;
#X obj 206 333 hsl 128 15 -1 1 0 0 empty empty empty -2 -8 0 10 -262144
-1 -1 9200 1;
#X obj 203 498 s toSC;
#X obj 206 353 hsl 128 15 -1 1 0 0 empty empty empty -2 -8 0 10 -262144
-1 -1 2400 1;
#X obj 206 373 hsl 128 15 0.001 144 1 0 empty empty empty -2 -8 0 10
-262144 -1 -1 12400 1;
#X floatatom 209 447 5 0 0 0 - - -;
#X obj 387 333 hsl 128 15 0 4 0 0 empty empty empty -2 -8 0 10 -262144
-1 -1 800 1;
#X obj 384 498 s toSC;
#X obj 387 353 hsl 128 15 0 4 0 0 empty empty empty -2 -8 0 10 -262144
-1 -1 6000 1;
#X obj 387 373 hsl 128 15 0.001 144 1 0 empty empty empty -2 -8 0 10
-262144 -1 -1 7500 1;
#X floatatom 390 447 5 0 0 0 - - -;
#X obj 582 333 hsl 128 15 0 0.5 0 0 empty empty empty -2 -8 0 10 -262144
-1 -1 0 1;
#X obj 579 498 s toSC;
#X obj 582 353 hsl 128 15 0 0.5 0 0 empty empty empty -2 -8 0 10 -262144
-1 -1 400 1;
#X obj 582 373 hsl 128 15 0.001 144 1 0 empty empty empty -2 -8 0 10
-262144 -1 -1 12100 1;
#X msg 579 422 /oo synth set trgMax \$1;
#X msg 585 468 /oo synth set trgRate \$1;
#X floatatom 585 447 5 0 0 0 - - -;
#X obj 765 333 hsl 128 15 0 1 0 0 empty empty empty -2 -8 0 10 -262144
-1 -1 2300 1;
#X msg 762 400 /oo synth set durMin \$1;
#X obj 762 498 s toSC;
#X obj 765 353 hsl 128 15 0 1 0 0 empty empty empty -2 -8 0 10 -262144
-1 -1 8800 1;
#X obj 765 373 hsl 128 15 0.001 144 1 0 empty empty empty -2 -8 0 10
-262144 -1 -1 12700 1;
#X msg 762 422 /oo synth set durMax \$1;
#X msg 768 468 /oo synth set durRate \$1;
#X floatatom 768 447 5 0 0 0 - - -;
#X text 197 310 panning and rate of change;
#X msg 203 400 /oo synth set panMin \$1;
#X msg 203 422 /oo synth set panMax \$1;
#X msg 209 468 /oo synth set panRate \$1;
#X text 372 310 playbackrate and rate of change;
#X msg 384 400 /oo synth set pchMin \$1;
#X msg 384 422 /oo synth set pchMax \$1;
#X msg 390 468 /oo synth set pchRate \$1;
#X text 570 310 triggerrate and rate of change;
#X text 759 310 duration and rate of change;
#X msg 579 400 /oo synth set trgMin \$1;
#X connect 1 0 2 0;
#X connect 3 0 12 0;
#X connect 4 0 3 0;
#X connect 5 0 6 0;
#X connect 6 0 2 0;
#X connect 8 0 10 0;
#X connect 9 0 12 1;
#X connect 12 0 8 0;
#X connect 13 0 23 0;
#X connect 14 0 1 0;
#X connect 15 0 17 0;
#X connect 17 0 21 0;
#X connect 18 0 19 0;
#X connect 19 0 15 0;
#X connect 21 0 22 0;
#X connect 23 0 24 0;
#X connect 25 0 27 0;
#X connect 26 0 29 0;
#X connect 27 0 24 0;
#X connect 28 0 24 0;
#X connect 29 0 28 0;
#X connect 31 0 57 0;
#X connect 33 0 58 0;
#X connect 34 0 35 0;
#X connect 35 0 59 0;
#X connect 36 0 61 0;
#X connect 38 0 62 0;
#X connect 39 0 40 0;
#X connect 40 0 63 0;
#X connect 41 0 66 0;
#X connect 43 0 45 0;
#X connect 44 0 47 0;
#X connect 45 0 42 0;
#X connect 46 0 42 0;
#X connect 47 0 46 0;
#X connect 48 0 49 0;
#X connect 49 0 50 0;
#X connect 51 0 53 0;
#X connect 52 0 55 0;
#X connect 53 0 50 0;
#X connect 54 0 50 0;
#X connect 55 0 54 0;
#X connect 57 0 32 0;
#X connect 58 0 32 0;
#X connect 59 0 32 0;
#X connect 61 0 37 0;
#X connect 62 0 37 0;
#X connect 63 0 37 0;
#X connect 66 0 42 0;
